PathFileType	4	(X/Y/Z)	C:/Users/beibeiliu/ov580/test_trc/User3\sequence.21_training_dense_right.trc
DataRate	CameraRate	NumFrames	NumMarkers	Units	OrigDataRate	OrigDataStartFrame	OrigNumFrames
120	120	10	19	mm	120	199	265
Frame#	Time	ThumbCMC			ThumbMCP			ThumbIP			ThumbTip			IndexMCP			IndexPIP			IndexTip			MiddleMCP			MiddlePIP			MiddleTip			RingMCP			RingPIP			RingTip			PinkyMCP			PinkyPIP			PinkyTip			BackHand1			BackHand2			BackHand3	
		X0	Y0	Z0	X1	Y1	Z1	X2	Y2	Z2	X3	Y3	Z3	X4	Y4	Z4	X5	Y5	Z5	X6	Y6	Z6	X7	Y7	Z7	X8	Y8	Z8	X9	Y9	Z9	X10	Y10	Z10	X11	Y11	Z11	X12	Y12	Z12	X13	Y13	Z13	X14	Y14	Z14	X15	Y15	Z15	X16	Y16	Z16	X17	Y17	Z17	X18	Y18	Z18	
198	1.65	106.799	-15.0623	12.366	79.7788	-5.46375	-2.35227	47.5532	-14.8992	-8.63116	29.3655	-19.5367	-11.5188	47.693	-32.6128	-23.2499	29.8515	-13.4455	0.662978	60.6519	-10.4901	14.1602	38.351	-50.1413	-17.7892	20.8199	-30.8877	3.49145	52.8997	-27.6772	25.2098	41.1681	-58.9623	11.0621	40.5997	-38.9232	34.8959	76.8049	-37.7307	33.021	46.8758	-69.6437	25.6095	55.7734	-46.9851	44.2019	82.8579	-52.7129	38.0274	96.4446	-77.1594	6.68527	121.549	-73.7481	20.9011	114.882	-43.2738	-3.80924	
199	1.65833	118.928	-9.63816	5.40536	90.5331	-4.27799	-11.8632	60.9784	-13.61	-17.4489	37.6525	-18.116	-23.4537	55.806	-39.6521	-30.4369	28.6435	-25.2022	-21.5319	32.3505	-2.03455	-1.27029	46.2881	-48.7786	-10.0302	31.8603	-24.8637	8.34843	64.634	-8.87558	24.6365	46.2916	-50.9027	11.0535	47.0526	-28.208	30.5719	79.9302	-25.8895	30.8962	51.7977	-55.7287	29.5859	61.07	-34.2449	40.8293	93.2105	-44.394	38.8744	98.9024	-75.5772	13.7723	129.324	-65.9583	31.2225	120.768	-49.7082	-0.322612	
200	1.66667	123.497	-3.457	7.24911	97.8308	2.20509	-10.5497	68.7765	-0.853108	-27.1231	47.2141	-19.7442	-23.2153	64.8228	-32.3878	-37.5293	35.6432	-19.104	-29.7025	29.4104	-0.310273	-8.21948	55.3715	-40.1118	-24.3881	38.9541	-23.8436	-2.29916	74.8737	-18.4235	17.4743	54.7905	-46.6789	2.93052	58.0443	-23.9074	23.9903	88.3313	-24.5177	25.4751	57.4237	-55.7086	19.091	65.2034	-34.8736	30.4711	96.3166	-39.1428	28.9384	111.801	-66.6568	2.85455	133.879	-63.674	22.0813	127.887	-38.2807	-5.37257	
201	1.675	128.273	-6.61318	-6.02823	95.6675	-3.02186	-24.3929	65.3399	-15.6666	-23.6453	55.7714	-31.9701	-4.445	66.7201	-25.0112	-45.6797	54.0634	1.95673	-31.8711	79.8614	3.54168	-11.572	58.9428	-37.4236	-30.9014	45.0327	-10.3865	-15.3688	78.8917	-9.5384	4.86991	50.969	-42.9047	-9.1842	46.4718	-16.6154	1.21316	80.6515	-13.5317	14.3643	53.206	-43.4016	8.62445	56.7157	-21.4503	22.2936	86.8515	-30.1121	32.508	104.492	-67.4124	4.45009	130.334	-61.9487	24.4045	129.258	-43.8487	-9.96402	
202	1.68333	146.545	-13.0741	2.08756	126.517	-4.11936	-21.2649	100.27	1.72269	-38.681	82.6708	4.3488	-47.7121	89.7376	-25.2817	-47.4396	67.7888	-10.1062	-57.2435	47.1265	-2.19373	-61.8444	71.2712	-35.9686	-44.8235	56.7125	-6.5031	-37.8991	78.8712	-3.34025	-4.42543	63.993	-47.1395	-19.8088	48.5343	-19.6122	-16.0823	73.4716	-8.19836	5.43485	58.5509	-49.0081	-3.89442	53.3436	-21.0923	-0.118646	72.9627	-17.7145	22.3522	112.138	-68.8034	6.86641	128.441	-67.3075	26.1493	139.27	-51.5053	-0.90126	
203	1.69167	150.064	-8.59687	-10.3414	127.362	2.69183	-35.6624	102.849	3.15648	-48.1557	77.7572	3.22001	-55.9611	94.0986	-29.1502	-60.3351	71.5057	-3.01146	-64.1781	81.9237	8.98198	-37.0876	78.2956	-31.8263	-48.7446	60.6869	-4.30284	-39.3196	87.3041	-0.926995	-10.4031	69.5781	-39.0273	-29.0705	57.266	-11.7836	-16.9343	81.478	-4.63996	-0.0134599	63.9364	-44.6087	-11.1891	58.0018	-17.2198	-1.14723	81.4733	-15.1674	14.5914	116.017	-63.6712	-7.8818	139.21	-63.5945	18.788	144.659	-46.8865	-10.9437	
204	1.7	157.965	-8.30585	-10.0679	140.187	2.00089	-38.1671	115.971	1.31735	-54.2244	90.6654	-5.47387	-60.1364	106.769	-25.4494	-67.5814	89.3377	1.12887	-66.3187	110.504	10.057	-39.0242	93.9089	-31.9274	-57.9016	77.1146	-2.34851	-52.1606	98.1025	-5.38289	-17.2223	83.1235	-41.603	-40.9305	68.9997	-11.7842	-33.4544	89.3967	-6.4867	-11.6813	77.1269	-42.8709	-26.9801	66.8316	-18.6704	-16.9052	85.9995	-14.5531	1.5862	125.367	-63.3913	-9.22573	141.707	-63.4316	15.6256	154.996	-45.3675	-15.5164	
205	1.70833	170.753	-6.30495	-8.15516	162.154	-1.10002	-39.8122	146.402	-4.32235	-64.1243	122.121	-20.246	-64.9813	149.528	-36.954	-79.9143	129.858	-19.0759	-93.3442	129.05	0.167294	-61.8717	122.931	-43.1779	-71.7173	106.852	-16.4004	-73.205	117.141	-9.80492	-34.3054	111.374	-50.9085	-57.0092	92.9181	-25.191	-57.5718	106.757	-14.5277	-29.7043	94.1299	-56.8124	-39.3372	87.8558	-29.9804	-43.268	107.764	-16.94	-26.4197	144.237	-66.1831	-11.6342	153.037	-59.4625	17.9769	172.625	-42.0093	-7.82442	
206	1.71667	183.108	-7.77943	-3.32694	182.301	-5.34332	-40.137	163.772	-17.2767	-64.2647	141.546	-33.4624	-72.2524	177.255	-45.6703	-75.7839	158.463	-26.5956	-92.3488	155.039	-7.83415	-64.9681	154.92	-52.6215	-72.7108	137.01	-25.4006	-81.6868	143.702	-13.0558	-43.806	134.267	-61.087	-64.4067	122.948	-37.6696	-73.3834	129.723	-17.4173	-47.1283	126.985	-62.305	-48.2228	116.111	-39.3457	-60.0325	116.689	-24.8294	-34.2787	156.76	-68.78	-3.88895	156.54	-57.4595	21.8859	185.041	-46.2663	-2.35447	
207	1.725	186.177	-12.005	-4.03576	192.599	-10.2208	-37.7654	182.992	-26.4657	-65.8737	166.669	-39.7442	-78.2519	198.841	-48.3087	-69.7381	181.987	-25.8311	-89.8363	172.172	-13.9173	-59.7709	178.546	-54.6528	-72.0057	158.935	-27.3443	-80.5365	153.987	-22.7564	-41.9537	158.198	-64.2819	-67.0934	142.509	-40.4057	-75.8119	146.994	-25.7621	-43.5317	148.287	-68.012	-56.7033	133.79	-46.0766	-66.3014	130.221	-32.981	-39.486	167.651	-74.6922	-9.53774	163.408	-61.7763	20.2227	191.529	-48.9609	0.718652	
